<svg width="1440" height="1300" xmlns="http://www.w3.org/2000/svg">
  <rect width="1440" height="1300" fill="#f9f7f7"/>
  
  <!-- Header -->
  <rect x="0" y="0" width="1440" height="120" fill="#ffffff" stroke="#e0e0e0" stroke-width="2"/>
  
  <!-- Left: Home button -->
  <circle cx="120" cy="60" r="24" fill="#647eb4"/>
  <rect x="113" y="50" width="14" height="20" rx="2" fill="#ffffff"/>
  <rect x="108" y="56" width="24" height="2" fill="#ffffff"/>
  <rect x="108" y="64" width="24" height="2" fill="#ffffff"/>
  <text x="160" y="66" font-family="Arial" font-size="18" font-weight="bold" fill="#211d63">خانه</text>
  
  <!-- Center: Title -->
  <text x="720" y="66" font-family="Arial" font-size="24" font-weight="bold" text-anchor="middle" fill="#211d63">داشبورد</text>
  
  <!-- Right: Settings icon -->
  <circle cx="1040" cy="60" r="22" fill="#b0caff"/>
  <circle cx="1040" cy="60" r="3" fill="#647eb4"/>
  <circle cx="1040" cy="50" r="2" fill="#647eb4"/>
  <circle cx="1040" cy="70" r="2" fill="#647eb4"/>
  <circle cx="1050" cy="55" r="2" fill="#647eb4"/>
  <circle cx="1050" cy="65" r="2" fill="#647eb4"/>
  <circle cx="1030" cy="55" r="2" fill="#647eb4"/>
  <circle cx="1030" cy="65" r="2" fill="#647eb4"/>
  
  <!-- Right: Flag -->
  <rect x="1090" y="46" width="50" height="28" rx="3" fill="#dddddd" stroke="#999999" stroke-width="1"/>
  <rect x="1090" y="46" width="50" height="9.33" fill="#239F40"/>
  <rect x="1090" y="55.33" width="50" height="9.33" fill="#ffffff"/>
  <rect x="1090" y="64.66" width="50" height="9.34" fill="#DA0000"/>
  
  <!-- Right: Logout button -->
  <rect x="1160" y="40" width="100" height="40" rx="20" fill="#fba199"/>
  <text x="1210" y="66" font-family="Arial" font-size="16" font-weight="bold" text-anchor="middle" fill="#ffffff">خروج</text>
  
  <!-- Right: User avatar -->
  <circle cx="1300" cy="60" r="32" fill="#b0caff" stroke="#647eb4" stroke-width="2"/>
  <text x="1300" y="68" font-family="Arial" font-size="20" font-weight="bold" text-anchor="middle" fill="#211d63">JA</text>
  
  <!-- Title & Button -->
  <text x="120" y="180" font-family="Arial" font-size="36" font-weight="bold" fill="#211d63">Dashboard</text>
  
  <rect x="1140" y="140" width="180" height="56" rx="28" fill="#647eb4"/>
  <text x="1230" y="174" font-family="Arial" font-size="18" font-weight="bold" text-anchor="middle" fill="#ffffff">New Exam</text>
  
  <!-- Submission Card 1 -->
  <rect x="100" y="240" width="1240" height="140" rx="20" fill="#ffffff" stroke="#e0e0e0" stroke-width="2"/>
  
  <rect x="120" y="265" width="100" height="36" rx="18" fill="#e3f2fd"/>
  <text x="170" y="288" font-family="Arial" font-size="15" font-weight="bold" text-anchor="middle" fill="#211d63">Writing</text>
  
  <rect x="240" y="265" width="120" height="36" rx="18" fill="#d4edda"/>
  <text x="300" y="288" font-family="Arial" font-size="14" font-weight="bold" text-anchor="middle" fill="#155724">Completed</text>
  
  <text x="120" y="335" font-family="Arial" font-size="15" fill="#647eb4">Topic: Favorite holiday destination</text>
  <text x="120" y="365" font-family="Arial" font-size="13" fill="#999999">2026/02/03 - 15:30</text>
  
  <rect x="920" y="260" width="120" height="70" rx="15" fill="#f9f7f7"/>
  <text x="980" y="285" font-family="Arial" font-size="13" text-anchor="middle" fill="#647eb4">Score</text>
  <text x="980" y="320" font-family="Arial" font-size="32" font-weight="bold" text-anchor="middle" fill="#211d63">90</text>
  
  <rect x="1060" y="280" width="120" height="48" rx="24" fill="#fba199"/>
  <text x="1120" y="310" font-family="Arial" font-size="16" font-weight="bold" text-anchor="middle" fill="#ffffff">Details</text>
  
  <!-- Submission Card 2 -->
  <rect x="100" y="400" width="1240" height="140" rx="20" fill="#ffffff" stroke="#e0e0e0" stroke-width="2"/>
  
  <rect x="120" y="425" width="120" height="36" rx="18" fill="#ffccbc"/>
  <text x="180" y="448" font-family="Arial" font-size="15" font-weight="bold" text-anchor="middle" fill="#211d63">Speaking</text>
  
  <rect x="260" y="425" width="120" height="36" rx="18" fill="#d4edda"/>
  <text x="320" y="448" font-family="Arial" font-size="14" font-weight="bold" text-anchor="middle" fill="#155724">Completed</text>
  
  <text x="120" y="495" font-family="Arial" font-size="15" fill="#647eb4">Topic: Childhood experience</text>
  <text x="120" y="525" font-family="Arial" font-size="13" fill="#999999">2026/02/03 - 14:15</text>
  
  <rect x="920" y="420" width="120" height="70" rx="15" fill="#f9f7f7"/>
  <text x="980" y="445" font-family="Arial" font-size="13" text-anchor="middle" fill="#647eb4">Score</text>
  <text x="980" y="480" font-family="Arial" font-size="32" font-weight="bold" text-anchor="middle" fill="#211d63">90</text>
  
  <rect x="1060" y="440" width="120" height="48" rx="24" fill="#fba199"/>
  <text x="1120" y="470" font-family="Arial" font-size="16" font-weight="bold" text-anchor="middle" fill="#ffffff">Details</text>
  
  <!-- Submission Card 3 -->
  <rect x="100" y="560" width="1240" height="140" rx="20" fill="#ffffff" stroke="#e0e0e0" stroke-width="2"/>
  
  <rect x="120" y="585" width="100" height="36" rx="18" fill="#e3f2fd"/>
  <text x="170" y="608" font-family="Arial" font-size="15" font-weight="bold" text-anchor="middle" fill="#211d63">Writing</text>
  
  <rect x="240" y="585" width="110" height="36" rx="18" fill="#fff3cd"/>
  <text x="295" y="608" font-family="Arial" font-size="14" font-weight="bold" text-anchor="middle" fill="#856404">Pending</text>
  
  <text x="120" y="655" font-family="Arial" font-size="15" fill="#647eb4">Topic: Working from home</text>
  <text x="120" y="685" font-family="Arial" font-size="13" fill="#999999">2026/02/02 - 18:45</text>
  
  <rect x="920" y="580" width="120" height="70" rx="15" fill="#f9f7f7"/>
  <text x="980" y="625" font-family="Arial" font-size="28" text-anchor="middle" fill="#999999">-</text>
  
  <rect x="1060" y="600" width="120" height="48" rx="24" fill="#fba199"/>
  <text x="1120" y="630" font-family="Arial" font-size="16" font-weight="bold" text-anchor="middle" fill="#ffffff">Details</text>
  
  <!-- Statistics -->
  <text x="100" y="780" font-family="Arial" font-size="26" font-weight="bold" fill="#211d63">Statistics</text>
  
  <rect x="100" y="820" width="380" height="140" rx="20" fill="#ffffff" stroke="#e0e0e0" stroke-width="2"/>
  <text x="290" y="885" font-family="Arial" font-size="40" font-weight="bold" text-anchor="middle" fill="#211d63">3</text>
  <text x="290" y="930" font-family="Arial" font-size="17" text-anchor="middle" fill="#647eb4">Total Exams</text>
  
  <rect x="530" y="820" width="380" height="140" rx="20" fill="#ffffff" stroke="#e0e0e0" stroke-width="2"/>
  <text x="720" y="885" font-family="Arial" font-size="40" font-weight="bold" text-anchor="middle" fill="#211d63">3</text>
  <text x="720" y="930" font-family="Arial" font-size="17" text-anchor="middle" fill="#647eb4">Completed</text>
  
  <rect x="960" y="820" width="380" height="140" rx="20" fill="#ffffff" stroke="#e0e0e0" stroke-width="2"/>
  <text x="1150" y="885" font-family="Arial" font-size="40" font-weight="bold" text-anchor="middle" fill="#211d63">90.0</text>
  <text x="1150" y="930" font-family="Arial" font-size="17" text-anchor="middle" fill="#647eb4">Average Score</text>
  
  <!-- Empty State -->
  <g opacity="0.2">
    <rect x="320" y="1020" width="800" height="240" rx="20" fill="#ffffff" stroke="#e0e0e0" stroke-width="2"/>
    <text x="720" y="1110" font-family="Arial" font-size="30" font-weight="bold" text-anchor="middle" fill="#211d63">No submissions yet</text>
    <text x="720" y="1160" font-family="Arial" font-size="18" text-anchor="middle" fill="#647eb4">Start your first exam to begin learning!</text>
    <rect x="510" y="1190" width="420" height="60" rx="30" fill="#647eb4"/>
    <text x="720" y="1228" font-family="Arial" font-size="20" font-weight="bold" text-anchor="middle" fill="#ffffff">Start First Exam</text>
  </g>
</svg>
